<?xml version="1.0" encoding="UTF-8" standalone="no"?>
<!DOCTYPE svg PUBLIC "-//W3C//DTD SVG 1.1//EN" "http://www.w3.org/Graphics/SVG/1.1/DTD/svg11.dtd">
<!-- Created with Vectornator (http://vectornator.io/) -->
<svg height="100%" stroke-miterlimit="10" style="fill-rule:nonzero;clip-rule:evenodd;stroke-linecap:round;stroke-linejoin:round;" version="1.1" viewBox="0 0 500 500" width="100%" xml:space="preserve" xmlns="http://www.w3.org/2000/svg" xmlns:vectornator="http://vectornator.io" xmlns:xlink="http://www.w3.org/1999/xlink">
<defs>
<clipPath id="TextBounds">
<rect height="202.487" width="323.697" x="9.13906" y="148.757"/>
</clipPath>
<clipPath id="TextBounds_2">
<rect height="202.487" width="323.697" x="133.319" y="194.625"/>
</clipPath>
</defs>
<g id="Layer-2" vectornator:layerName="Layer 2">
<g fill="#ffffff" opacity="1" stroke="none">
<path clip-path="url(#TextBounds)" d="M99.175 177.557L96.4 177.557C95.425 177.632 94.45 177.707 93.55 177.782C93.1 177.857 92.875 178.082 92.875 178.457C92.875 178.607 92.95 178.832 93.1 179.057C93.4 179.507 93.775 179.657 94.3 179.807C95.5 180.032 96.7 180.107 97.9 180.182C100.975 180.332 103.975 180.407 107.05 180.407L112.15 180.407C113.875 180.407 115.6 180.407 117.25 180.482L118.825 180.482C122.275 181.157 125.65 182.132 128.725 184.082C131.8 186.032 133.825 188.732 134.425 192.407C134.575 193.307 134.65 194.207 134.65 195.107C134.65 197.057 134.275 199.007 133.675 200.957C133.45 201.632 133.075 202.232 132.625 202.757C129.175 206.582 125.8 210.332 122.425 214.157C116.2 221.207 110.2 228.407 104.275 235.757C101.425 239.282 98.5 242.882 95.8 246.557C95.425 247.157 95.05 247.682 94.75 248.282C94.675 248.432 94.675 248.582 94.675 248.732C94.675 249.032 94.825 249.332 95.05 249.557C95.2 249.707 95.35 249.707 95.5 249.707C95.725 249.707 96.025 249.557 96.175 249.407C96.85 248.957 97.525 248.432 98.05 247.832C100.9 245.057 103.825 242.357 106.525 239.507C111.4 234.557 116.2 229.457 120.7 224.132C124.45 219.632 128.05 214.982 131.05 209.882C132.325 207.632 133.825 205.457 135.7 203.582C139.975 199.232 144.325 194.807 148.825 190.457C151.825 187.607 154.825 184.757 157.6 181.682C158.425 180.707 159.25 180.407 160.525 180.407C170.65 180.482 180.7 180.407 190.825 180.632C194.575 180.782 198.325 180.857 202.075 181.007C203.875 181.082 205.675 181.082 207.475 181.382C208.3 181.457 209.125 181.457 209.95 181.607C210.25 181.607 210.625 181.607 210.7 181.232L210.7 181.082C210.7 180.782 210.475 180.632 210.175 180.557C209.875 180.482 209.575 180.407 209.2 180.407C206.35 180.032 203.5 179.882 200.575 179.732C196.075 179.507 191.575 179.282 187.075 179.207C179.425 179.132 171.7 178.907 164.05 178.907L160.75 178.907C160.15 178.907 159.775 178.757 159.325 178.307C158.875 177.782 158.575 177.482 158.2 177.482C157.9 177.482 157.6 177.707 157.225 178.007C156.475 178.682 155.725 178.757 154.825 178.757C146.575 178.607 138.325 178.757 130.075 178.532C127.75 178.457 125.425 178.457 123.1 178.457L115.225 178.457C114.85 178.457 114.55 178.457 114.175 178.382C109.225 177.782 104.2 177.707 99.175 177.557ZM124.525 180.482L154.375 180.482C151.225 183.707 148 186.632 145 189.707C141.925 192.932 138.85 195.932 135.775 199.157C135.85 197.807 136 196.532 136 195.182C136 194.507 136 193.907 135.85 193.232C135.55 191.282 134.95 189.407 133.9 187.682C132.775 185.957 131.35 184.532 129.775 183.407C128.125 182.207 126.325 181.382 124.525 180.482ZM100.525 243.107C109.3 232.307 118.45 221.882 128.05 211.832C127.9 212.057 127.75 212.357 127.6 212.657C124.75 217.007 121.45 221.057 118.075 224.957C112.975 230.882 107.65 236.507 102.025 241.982C101.575 242.357 101.2 242.807 100.525 243.107Z" fill-rule="evenodd"/>
<path clip-path="url(#TextBounds)" d="M152.125 218.507C152.725 217.607 153.25 217.007 153.85 216.407L157.975 212.282C158.425 211.832 158.8 211.307 159.25 210.857C159.475 210.482 159.625 210.107 159.625 209.732C159.625 209.507 159.55 209.282 159.4 208.982C159.025 208.532 158.575 208.232 158.05 208.232C157.975 208.232 157.825 208.307 157.675 208.307C157.3 208.382 156.925 208.457 156.55 208.607C155.35 208.982 154.225 209.507 153.025 210.032C149.275 211.832 145.75 213.932 142.15 216.032C141.7 216.257 141.325 216.632 140.8 216.632L140.8 216.482C140.8 216.107 141.025 215.957 141.25 215.732C143.8 212.657 146.575 209.807 149.35 206.957C149.725 206.582 150.175 206.357 150.7 206.207C152.95 205.532 155.125 204.482 157.3 203.432C163.15 200.432 168.7 196.907 174.1 193.082C179.425 189.332 184.45 185.282 188.95 180.557C189.925 179.507 190.825 178.457 191.65 177.257C191.95 176.732 192.25 176.207 192.4 175.532L192.4 175.157C192.4 173.957 191.575 173.057 190.375 172.982L189.925 172.982C189.475 172.982 189.1 173.057 188.725 173.132C187.675 173.432 186.625 173.882 185.65 174.332C181.6 176.282 177.925 178.757 174.325 181.457C167.35 186.632 160.9 192.482 154.675 198.557C150.925 202.157 147.4 205.982 143.875 209.807C142.3 211.532 140.8 213.182 139.375 214.982C139 215.582 138.55 216.182 138.175 216.857C138.1 217.082 138.025 217.307 138.025 217.532C138.025 217.832 138.1 218.132 138.325 218.357C138.625 218.732 139 218.882 139.45 218.882C139.6 218.882 139.825 218.882 139.975 218.807C140.5 218.657 140.95 218.432 141.475 218.132C143.5 217.007 145.525 215.807 147.55 214.682C150.325 213.107 153.175 211.607 156.1 210.407C156.325 210.332 156.55 210.257 156.85 210.257C156.925 210.257 157.075 210.257 157.225 210.332C155.65 212.057 154 213.557 152.35 215.132C151.75 215.732 151.225 216.482 150.775 217.232C150.55 217.532 150.475 217.907 150.475 218.207C150.475 218.507 150.55 218.882 150.775 219.182C151.225 219.707 151.675 220.082 152.35 220.082C152.425 220.082 152.575 220.007 152.725 220.007C153.625 219.857 154.525 219.632 155.35 219.332C158.65 218.207 161.875 217.157 165.175 216.032C166.525 215.582 167.875 215.207 169.15 214.757C169.675 214.607 170.125 214.382 170.575 214.157C170.8 214.007 171.025 213.932 171.025 213.707C171.025 213.632 170.95 213.557 170.95 213.482C170.8 213.257 170.65 213.182 170.425 213.182L170.2 213.182C170.05 213.182 169.975 213.257 169.825 213.257C165.4 214.682 160.975 216.032 156.475 217.382C155.125 217.832 153.775 218.282 152.125 218.507ZM152.65 203.882C153.775 202.682 154.975 201.407 156.175 200.282C160.3 196.382 164.425 192.557 168.85 188.882C174.25 184.457 179.725 180.257 185.875 176.882C187.225 176.057 188.65 175.382 190.15 175.007C190.3 174.932 190.45 174.857 190.6 174.857C190.675 174.857 190.75 174.932 190.9 175.007C190.9 175.607 190.525 176.132 190.15 176.657C189.325 178.007 188.2 179.207 187.15 180.332C183.1 184.682 178.6 188.432 173.8 191.807C168.175 195.782 162.25 199.307 156.175 202.457C155.05 203.057 153.925 203.582 152.65 203.882Z" fill-rule="evenodd"/>
<path clip-path="url(#TextBounds)" d="M177.175 214.382C177.25 214.457 177.25 214.532 177.325 214.607C176.8 215.357 176.275 216.182 175.975 217.007C175.825 217.307 175.825 217.607 175.825 217.907C175.825 218.657 176.275 219.257 177.1 219.632C177.475 219.782 177.85 219.857 178.225 219.857L178.6 219.857C179.95 219.707 181.3 219.257 182.575 218.807C187.075 217.232 191.65 215.657 196.225 214.082C196.45 214.007 196.675 213.932 196.825 213.782C196.975 213.707 197.125 213.632 197.125 213.482L197.125 213.332C197.125 213.107 196.975 213.032 196.75 212.957C196.675 212.882 196.525 212.882 196.45 212.882C196.225 212.882 196 212.957 195.775 213.032L190.825 214.607C187 215.807 183.25 217.157 179.35 218.132C178.975 218.207 178.525 218.432 178.225 218.432C178.075 218.432 177.925 218.357 177.85 218.207C177.775 218.057 177.7 217.982 177.7 217.832C177.7 217.382 178.15 217.007 178.375 216.632C179.35 215.207 180.55 213.857 181.75 212.657L183.55 210.857C183.775 210.632 183.85 210.407 183.85 210.182C183.85 209.957 183.775 209.807 183.625 209.582C183.325 209.207 183.025 209.057 182.8 209.057C182.575 209.057 182.35 209.132 182.125 209.282C180.925 210.107 179.725 210.857 178.6 211.682C178.3 211.907 178.075 211.982 177.85 211.982C177.625 211.982 177.4 211.907 177.175 211.682C176.35 210.932 175.45 210.632 174.55 210.632C173.65 210.632 172.825 210.932 171.925 211.382C170.275 212.357 169 213.632 168.025 215.207C167.8 215.507 167.65 215.732 167.575 216.032C167.5 216.257 167.425 216.482 167.425 216.707C167.425 217.607 168.1 218.282 169.075 218.282L169.375 218.282C169.975 218.207 170.5 217.982 171.025 217.757C172.45 216.932 173.875 216.182 175.375 215.357C175.975 215.057 176.575 214.682 177.175 214.382ZM169.975 216.482C171.7 214.382 174.1 212.882 175.6 212.882C175.75 212.882 175.975 212.882 176.125 212.957C175.525 213.707 172.3 215.507 169.975 216.482Z" fill-rule="evenodd"/>
<path clip-path="url(#TextBounds)" d="M209.125 212.057C208.375 213.182 207.775 214.082 207.25 215.057C206.95 215.507 206.65 216.032 206.575 216.557C206.5 216.782 206.5 217.007 206.5 217.232C206.5 218.282 207.175 219.032 208.3 219.032C208.45 219.032 208.675 218.957 208.825 218.957C209.5 218.807 210.175 218.582 210.85 218.282C214.3 217.007 217.675 215.657 221.2 214.532L221.875 214.307C222.1 214.232 222.25 214.157 222.25 213.932L222.25 213.782C222.25 213.482 222.025 213.332 221.725 213.257C221.35 213.257 220.975 213.407 220.6 213.482C217.225 214.382 213.925 215.657 210.625 216.707C210.175 216.857 209.8 217.007 209.425 217.082C209.2 217.157 208.9 217.307 208.675 217.307C208.6 217.307 208.45 217.232 208.375 217.157C208.3 217.082 208.3 217.007 208.3 216.857C208.3 216.632 208.525 216.332 208.675 216.107C209.2 215.357 209.8 214.607 210.325 213.782C210.625 213.332 210.925 212.882 211.15 212.432C211.3 212.132 211.375 211.907 211.375 211.682C211.375 211.307 211.225 211.007 210.925 210.632C210.625 210.257 210.25 210.107 209.875 210.107C209.65 210.107 209.5 210.107 209.275 210.182C208.45 210.407 207.625 210.782 206.875 211.157C203.275 212.957 199.825 214.982 196.3 217.082C196.15 217.232 195.925 217.307 195.7 217.307L195.475 217.307C195.625 217.007 195.925 216.857 196.15 216.632L201.55 211.232C201.925 210.782 202.15 210.482 202.15 210.107C202.15 209.732 201.85 209.357 201.325 208.982C201.1 208.832 200.875 208.682 200.65 208.682C200.35 208.682 199.975 208.907 199.525 209.432C197.125 211.907 194.725 214.457 192.625 217.307C192.325 217.757 191.95 218.282 191.8 218.807C191.725 219.032 191.65 219.182 191.65 219.407C191.65 219.632 191.8 219.932 192.025 220.232C192.325 220.457 192.625 220.607 192.925 220.607C193.075 220.607 193.225 220.532 193.45 220.457C193.825 220.307 194.2 220.082 194.575 219.857C198.475 217.457 202.375 215.057 206.575 213.107C207.325 212.732 208.075 212.357 209.125 212.057Z" fill-rule="evenodd"/>
<path clip-path="url(#TextBounds)" d="M231.925 218.507C232.525 217.607 233.05 217.007 233.65 216.407L237.775 212.282C238.225 211.832 238.6 211.307 239.05 210.857C239.275 210.482 239.425 210.107 239.425 209.732C239.425 209.507 239.35 209.282 239.2 208.982C238.825 208.532 238.375 208.232 237.85 208.232C237.775 208.232 237.625 208.307 237.475 208.307C237.1 208.382 236.725 208.457 236.35 208.607C235.15 208.982 234.025 209.507 232.825 210.032C229.075 211.832 225.55 213.932 221.95 216.032C221.5 216.257 221.125 216.632 220.6 216.632L220.6 216.482C220.6 216.107 220.825 215.957 221.05 215.732C223.6 212.657 226.375 209.807 229.15 206.957C229.525 206.582 229.975 206.357 230.5 206.207C232.75 205.532 234.925 204.482 237.1 203.432C242.95 200.432 248.5 196.907 253.9 193.082C259.225 189.332 264.25 185.282 268.75 180.557C269.725 179.507 270.625 178.457 271.45 177.257C271.75 176.732 272.05 176.207 272.2 175.532L272.2 175.157C272.2 173.957 271.375 173.057 270.175 172.982L269.725 172.982C269.275 172.982 268.9 173.057 268.525 173.132C267.475 173.432 266.425 173.882 265.45 174.332C261.4 176.282 257.725 178.757 254.125 181.457C247.15 186.632 240.7 192.482 234.475 198.557C230.725 202.157 227.2 205.982 223.675 209.807C222.1 211.532 220.6 213.182 219.175 214.982C218.8 215.582 218.35 216.182 217.975 216.857C217.9 217.082 217.825 217.307 217.825 217.532C217.825 217.832 217.9 218.132 218.125 218.357C218.425 218.732 218.8 218.882 219.25 218.882C219.4 218.882 219.625 218.882 219.775 218.807C220.3 218.657 220.75 218.432 221.275 218.132C223.3 217.007 225.325 215.807 227.35 214.682C230.125 213.107 232.975 211.607 235.9 210.407C236.125 210.332 236.35 210.257 236.65 210.257C236.725 210.257 236.875 210.257 237.025 210.332C235.45 212.057 233.8 213.557 232.15 215.132C231.55 215.732 231.025 216.482 230.575 217.232C230.35 217.532 230.275 217.907 230.275 218.207C230.275 218.507 230.35 218.882 230.575 219.182C231.025 219.707 231.475 220.082 232.15 220.082C232.225 220.082 232.375 220.007 232.525 220.007C233.425 219.857 234.325 219.632 235.15 219.332C238.45 218.207 241.675 217.157 244.975 216.032C246.325 215.582 247.675 215.207 248.95 214.757C249.475 214.607 249.925 214.382 250.375 214.157C250.6 214.007 250.825 213.932 250.825 213.707C250.825 213.632 250.75 213.557 250.75 213.482C250.6 213.257 250.45 213.182 250.225 213.182L250 213.182C249.85 213.182 249.775 213.257 249.625 213.257C245.2 214.682 240.775 216.032 236.275 217.382C234.925 217.832 233.575 218.282 231.925 218.507ZM232.45 203.882C233.575 202.682 234.775 201.407 235.975 200.282C240.1 196.382 244.225 192.557 248.65 188.882C254.05 184.457 259.525 180.257 265.675 176.882C267.025 176.057 268.45 175.382 269.95 175.007C270.1 174.932 270.25 174.857 270.4 174.857C270.475 174.857 270.55 174.932 270.7 175.007C270.7 175.607 270.325 176.132 269.95 176.657C269.125 178.007 268 179.207 266.95 180.332C262.9 184.682 258.4 188.432 253.6 191.807C247.975 195.782 242.05 199.307 235.975 202.457C234.85 203.057 233.725 203.582 232.45 203.882Z" fill-rule="evenodd"/>
</g>
<g fill="#ffffff" opacity="1" stroke="none">
<path clip-path="url(#TextBounds_2)" d="M308.405 223.05L309.23 223.05C311.33 223.05 313.355 223.275 315.38 223.8C316.205 224.025 317.03 224.325 317.705 224.775C318.455 225.225 318.755 225.75 318.755 226.35C318.755 226.65 318.68 226.95 318.605 227.325C318.38 227.85 318.08 228.375 317.78 228.825C317.03 229.875 316.28 230.85 315.305 231.675C313.58 233.25 311.705 234.675 309.755 236.025C301.505 241.575 292.58 245.85 283.28 249.375C278.555 251.1 273.83 252.675 268.73 252.825C268.505 252.825 268.205 252.825 268.13 253.125C268.13 253.425 268.28 253.575 268.43 253.725C268.805 253.95 269.18 254.1 269.555 254.1C270.305 254.1 271.13 254.1 271.88 253.95C275.105 253.575 278.255 252.75 281.33 251.7C289.28 249 296.855 245.55 304.13 241.5C307.955 239.325 311.705 237.075 315.155 234.225C316.58 233.025 318.005 231.675 319.13 230.1C319.88 229.05 320.18 227.85 320.18 226.8C320.18 224.7 318.98 222.825 316.955 221.925C315.905 221.4 314.78 221.025 313.655 220.8C311.78 220.425 309.905 220.35 308.03 220.35C306.155 220.35 304.28 220.425 302.405 220.65C295.88 221.4 289.505 222.975 283.28 225C274.505 227.775 266.105 231.45 257.93 235.8C251.63 239.175 245.555 242.925 240.005 247.35C237.605 249.225 235.355 251.175 233.405 253.5C232.355 254.7 231.38 255.975 230.705 257.475C230.33 258.375 230.18 259.2 230.18 259.95C230.18 261.3 230.78 262.575 232.055 263.775C233.48 265.2 235.28 265.95 237.155 266.55C240.08 267.45 243.08 267.975 246.08 268.425C252.08 269.325 258.08 270 264.005 271.05C267.605 271.65 271.205 272.4 274.73 273.6C275.93 274.125 277.13 274.65 278.255 275.475C279.155 276.15 279.53 276.825 279.53 277.65C279.53 278.175 279.38 278.7 279.08 279.375C278.555 280.35 277.805 281.175 276.98 282C274.805 283.95 272.33 285.45 269.78 286.875C265.43 289.275 260.78 291.15 256.13 292.725C251.555 294.225 246.98 295.5 242.255 296.175C241.355 296.325 240.53 296.325 239.63 296.325C238.955 296.325 238.205 296.325 237.53 296.25C236.78 296.175 236.405 295.875 236.405 295.425C236.405 295.125 236.48 294.825 236.78 294.45C237.005 294.15 237.23 293.925 237.455 293.7C238.205 292.95 239.105 292.425 240.005 291.975C242.33 290.7 244.805 289.65 247.28 288.825C252.53 287.025 257.63 285.075 263.255 285.075C263.555 285.075 263.855 285.075 263.855 284.7L263.855 284.625C263.855 284.4 263.63 284.25 263.405 284.1C262.88 283.875 262.28 283.8 261.755 283.8C261.455 283.8 261.23 283.875 260.93 283.875C259.73 284.025 258.53 284.175 257.33 284.4C251.48 285.525 245.855 287.475 240.38 289.725C239.105 290.25 237.905 290.775 236.855 291.6C236.03 292.125 235.355 292.8 234.905 293.625C234.755 294 234.605 294.375 234.605 294.75C234.605 295.275 234.83 295.8 235.205 296.25C235.955 297.225 237.005 297.6 238.13 297.825C238.88 297.975 239.63 298.05 240.305 298.05C242.03 298.05 243.755 297.75 245.405 297.45C252.38 296.175 259.055 294.075 265.58 291.375C269.48 289.8 273.155 288 276.605 285.6C278.18 284.475 279.605 283.2 280.655 281.55C281.255 280.575 281.555 279.675 281.555 278.7C281.555 277.875 281.33 276.975 280.805 276.15C279.905 274.65 278.63 273.525 277.13 272.775C274.58 271.425 271.805 270.6 269.03 270C261.83 268.35 254.555 267.525 247.28 266.4C243.98 265.95 240.68 265.425 237.455 264.6C236.255 264.225 235.055 263.85 233.93 263.25C232.88 262.65 232.43 261.825 232.43 260.775C232.43 260.55 232.43 260.25 232.505 259.95C232.655 259.125 233.03 258.3 233.405 257.55C234.305 255.975 235.505 254.625 236.78 253.35C239.78 250.275 243.155 247.725 246.68 245.325C253.205 240.9 260.03 237.15 267.23 233.925C275.48 230.1 284.03 227.025 292.955 225C297.98 223.875 303.155 223.05 308.405 223.05Z" fill-rule="evenodd"/>
<path clip-path="url(#TextBounds_2)" d="M284.33 268.65C284.405 268.575 284.555 268.575 284.63 268.575C284.93 268.5 285.305 268.5 285.53 268.35C289.43 267 292.73 264.9 295.13 261.525C295.58 261 295.955 260.7 296.705 260.625C299.405 260.55 302.105 260.325 304.88 260.175L307.355 259.95C307.655 259.95 307.955 259.95 307.955 259.575L307.955 259.5C307.955 259.125 307.655 258.975 307.28 258.975L306.98 258.975C305.855 258.975 304.655 258.975 303.53 259.05C301.355 259.275 299.105 259.125 296.855 259.35L296.63 259.35C296.33 259.35 296.105 259.2 295.955 258.675C295.655 256.95 294.755 256.2 293.18 256.2C292.88 256.2 292.58 256.2 292.28 256.275C292.13 256.275 291.905 256.35 291.755 256.35C291.53 256.35 291.38 256.275 291.155 256.2C290.78 255.9 290.48 255.75 290.105 255.75C289.58 255.75 289.055 256.125 288.53 256.575C286.28 258.525 284.33 260.775 282.905 263.4C282.455 264.15 282.08 264.975 281.93 265.875L281.93 266.25C281.93 267.6 282.98 268.65 284.33 268.65ZM293.48 260.775L293.48 260.925C293.48 261.3 293.33 261.375 293.105 261.6C290.93 264.15 288.08 265.875 284.93 266.925C284.705 267 284.405 267.15 284.18 267.15C284.03 267.15 283.88 267.075 283.805 267C283.655 266.85 283.655 266.775 283.655 266.625C283.655 266.4 283.88 266.1 283.955 265.875C284.705 264.375 285.755 263.1 286.88 261.9C287.555 261.075 288.38 260.325 289.13 259.575C289.28 259.425 289.43 259.275 289.655 259.275C289.73 259.275 289.88 259.275 289.955 259.425C290.855 260.4 292.055 260.55 293.255 260.7C293.33 260.7 293.405 260.775 293.48 260.775ZM293.405 259.35L293.405 259.425C292.73 259.35 292.055 259.275 291.455 259.125C291.155 259.05 291.005 258.9 291.005 258.75C291.005 258.6 291.08 258.525 291.23 258.375C291.83 257.775 292.58 257.625 293.405 257.625L293.855 257.625C294.38 257.7 294.68 257.925 294.68 258.45C294.68 258.975 294.38 259.275 293.855 259.35L293.405 259.35Z" fill-rule="evenodd"/>
<path clip-path="url(#TextBounds_2)" d="M352.955 219.675L352.805 219.675C351.905 219.675 350.93 220.05 349.955 220.425C347.78 221.325 345.755 222.525 343.73 223.8C336.68 228.3 330.38 233.775 324.38 239.55C320.78 243 317.405 246.675 314.03 250.35C313.73 250.725 313.355 251.175 312.755 251.325C312.53 251.4 312.305 251.475 312.305 251.775C312.305 252.6 311.705 253.05 311.18 253.65C305.855 259.8 300.755 266.1 295.73 272.55C291.605 277.725 287.63 283.05 284.03 288.6C283.205 289.8 282.53 291.075 281.93 292.35C281.705 292.8 281.555 293.25 281.555 293.7C281.555 294.075 281.705 294.3 282.005 294.45L282.155 294.45C282.455 294.45 282.605 294.225 282.68 293.925C283.43 291.6 284.855 289.65 286.205 287.7C294.53 276.075 303.605 265.05 313.13 254.325C314.33 252.975 315.68 252.15 317.405 251.55C324.605 249.3 331.055 245.475 337.28 241.275C341.18 238.65 344.855 235.725 348.305 232.5C350.48 230.55 352.505 228.375 354.155 225.9C354.755 225 355.355 224.025 355.58 222.9C355.655 222.675 355.655 222.45 355.655 222.225C355.655 220.8 354.605 219.675 352.955 219.675ZM317.18 250.125C317.255 249.975 317.255 249.825 317.33 249.75C324.755 242.1 332.48 234.9 341.105 228.675C344.105 226.5 347.18 224.475 350.48 222.825C351.38 222.45 352.205 222.075 353.105 221.85C353.255 221.775 353.48 221.775 353.63 221.775C353.78 221.775 353.93 221.775 354.005 221.925C354.08 222 354.08 222.075 354.08 222.15C354.08 222.3 354.005 222.525 353.93 222.675C353.48 223.875 352.88 224.925 352.13 225.975C349.88 229.05 347.105 231.75 344.18 234.3C336.38 240.825 327.68 245.925 318.305 249.75C317.93 249.9 317.63 250.125 317.18 250.125Z" fill-rule="evenodd"/>
<path clip-path="url(#TextBounds_2)" d="M324.005 260.25C324.08 260.325 324.08 260.4 324.155 260.475C323.63 261.225 323.105 262.05 322.805 262.875C322.655 263.175 322.655 263.475 322.655 263.775C322.655 264.525 323.105 265.125 323.93 265.5C324.305 265.65 324.68 265.725 325.055 265.725L325.43 265.725C326.78 265.575 328.13 265.125 329.405 264.675C333.905 263.1 338.48 261.525 343.055 259.95C343.28 259.875 343.505 259.8 343.655 259.65C343.805 259.575 343.955 259.5 343.955 259.35L343.955 259.2C343.955 258.975 343.805 258.9 343.58 258.825C343.505 258.75 343.355 258.75 343.28 258.75C343.055 258.75 342.83 258.825 342.605 258.9L337.655 260.475C333.83 261.675 330.08 263.025 326.18 264C325.805 264.075 325.355 264.3 325.055 264.3C324.905 264.3 324.755 264.225 324.68 264.075C324.605 263.925 324.53 263.85 324.53 263.7C324.53 263.25 324.98 262.875 325.205 262.5C326.18 261.075 327.38 259.725 328.58 258.525L330.38 256.725C330.605 256.5 330.68 256.275 330.68 256.05C330.68 255.825 330.605 255.675 330.455 255.45C330.155 255.075 329.855 254.925 329.63 254.925C329.405 254.925 329.18 255 328.955 255.15C327.755 255.975 326.555 256.725 325.43 257.55C325.13 257.775 324.905 257.85 324.68 257.85C324.455 257.85 324.23 257.775 324.005 257.55C323.18 256.8 322.28 256.5 321.38 256.5C320.48 256.5 319.655 256.8 318.755 257.25C317.105 258.225 315.83 259.5 314.855 261.075C314.63 261.375 314.48 261.6 314.405 261.9C314.33 262.125 314.255 262.35 314.255 262.575C314.255 263.475 314.93 264.15 315.905 264.15L316.205 264.15C316.805 264.075 317.33 263.85 317.855 263.625C319.28 262.8 320.705 262.05 322.205 261.225C322.805 260.925 323.405 260.55 324.005 260.25ZM316.805 262.35C318.53 260.25 320.93 258.75 322.43 258.75C322.58 258.75 322.805 258.75 322.955 258.825C322.355 259.575 319.13 261.375 316.805 262.35Z" fill-rule="evenodd"/>
<path clip-path="url(#TextBounds_2)" d="M345.605 261.075L345.83 261.3L344.03 263.55C343.43 264.375 342.83 265.125 342.53 266.1C342.455 266.4 342.38 266.625 342.38 266.925C342.38 267.3 342.53 267.675 342.83 268.05C343.205 268.5 343.73 268.725 344.255 268.725C344.48 268.725 344.63 268.725 344.855 268.65C345.23 268.5 345.68 268.425 346.055 268.275C347.18 267.825 348.23 267.375 349.28 266.775C352.805 264.825 356.48 262.95 360.08 261.15C360.68 260.925 361.355 260.625 361.955 260.325C362.105 260.25 362.405 260.1 362.405 259.875C362.405 259.8 362.33 259.725 362.33 259.65C362.18 259.425 362.03 259.35 361.88 259.35C361.73 259.35 361.655 259.35 361.505 259.425C360.755 259.725 360.005 260.025 359.33 260.325C355.73 261.975 352.205 263.775 348.68 265.5C347.78 265.95 346.955 266.4 346.055 266.775C345.53 266.925 345.005 267.375 344.555 267.375C344.405 267.375 344.255 267.3 344.105 267.15C344.03 267 343.955 266.925 343.955 266.775C343.955 266.325 344.555 265.8 344.93 265.35C346.13 263.625 347.63 262.05 349.205 260.55C349.505 260.175 349.88 259.875 350.255 259.5C350.555 259.125 350.705 258.825 350.705 258.525C350.705 258.3 350.63 258.075 350.48 257.925C350.255 257.625 350.03 257.475 349.805 257.475C349.58 257.475 349.28 257.55 348.905 257.775C347.855 258.3 346.955 258.975 345.905 259.35C345.755 259.425 345.605 259.5 345.38 259.5C345.305 259.5 345.23 259.5 345.08 259.35C345.68 258.6 346.28 258.075 347.03 257.625C347.48 257.25 347.705 257.025 347.705 256.725C347.705 256.575 347.63 256.425 347.555 256.2C347.255 255.75 346.88 255.45 346.43 255.45C346.205 255.45 346.055 255.525 345.83 255.6C344.405 256.425 343.28 257.625 342.605 259.2C342.53 259.425 342.455 259.65 342.455 259.8C342.455 260.25 342.605 260.55 342.905 260.925C343.205 261.225 343.58 261.45 344.03 261.45C344.18 261.45 344.33 261.45 344.48 261.375C344.855 261.3 345.23 261.225 345.605 261.075Z" fill-rule="evenodd"/>
</g>
</g>
<g id="Layer-3" vectornator:layerName="Layer 3">
<path d="M203.486 232.216L230.321 237.747" fill="#ffffff" fill-rule="evenodd" opacity="1" stroke="none"/>
<g opacity="1">
<path d="M294.926 205.774C287.988 209.421 218.536 245.933 218.536 245.933C218.536 245.933 136.095 246.085 128.383 246.1" fill="none" stroke="#ffffff" stroke-linecap="round" stroke-linejoin="round" stroke-width="0.7"/>
<g fill="#ffffff" stroke="none">
<path d="M128.554 243.999L124.354 244.007L124.362 248.207L128.562 248.199L128.554 243.999ZM127.861 247.5L125.061 247.506L125.056 244.706L127.856 244.701L127.861 247.5Z" fill="#ffffff"/>
<path d="M299.108 203.575C298.478 202.377 296.997 201.917 295.799 202.546C294.602 203.176 294.141 204.657 294.771 205.855C295.401 207.053 296.882 207.513 298.08 206.883C299.277 206.254 299.738 204.773 299.108 203.575ZM298.489 203.901C298.938 204.756 298.609 205.814 297.754 206.264C296.898 206.714 295.84 206.385 295.391 205.529C294.941 204.674 295.27 203.616 296.125 203.166C296.981 202.716 298.039 203.045 298.489 203.901Z" fill="#ffffff"/>
</g>
</g>
</g>
</svg>
